<svg xmlns="http://www.w3.org/2000/svg" width="17.64" height="17.64" viewBox="0 0 17.64 17.64">
  <g id="Grupo_8" data-name="Grupo 8" transform="translate(8.82 8.82)">
    <g id="Grupo_6" data-name="Grupo 6">
      <path id="Caminho_9" data-name="Caminho 9" d="M2.36-8.82,3.8-6.59l2.654.13L6.59-3.805,8.82-2.365,7.61,0,8.82,2.36,6.59,3.8,6.46,6.455,3.805,6.59,2.365,8.82,0,7.61-2.36,8.82-3.8,6.59l-2.654-.13L-6.59,3.805-8.82,2.365-7.61,0-8.82-2.36-6.59-3.8l.13-2.654,2.654-.134,1.441-2.23L0-7.61Z" fill="#42a5f5"/>
    </g>
    <g id="Grupo_7" data-name="Grupo 7" transform="translate(-0.004 0.214)">
      <path id="Caminho_10" data-name="Caminho 10" d="M-1.092,2.831-3.818.1l.89-.89,1.852,1.848L2.94-2.831l.878.9Z" fill="#fff"/>
    </g>
  </g>
</svg>
